<svg xmlns="http://www.w3.org/2000/svg" width="24" height="24" viewBox="0 0 24 24">
  <metadata><?xpacket begin="﻿" id="W5M0MpCehiHzreSzNTczkc9d"?>
<x:xmpmeta xmlns:x="adobe:ns:meta/" x:xmptk="Adobe XMP Core 5.6-c138 79.159824, 2016/09/14-01:09:01        ">
   <rdf:RDF xmlns:rdf="http://www.w3.org/1999/02/22-rdf-syntax-ns#">
      <rdf:Description rdf:about=""/>
   </rdf:RDF>
</x:xmpmeta>
                                                                                                    
                                                                                                    
                                                                                                    
                                                                                                    
                                                                                                    
                                                                                                    
                                                                                                    
                                                                                                    
                                                                                                    
                                                                                                    
                                                                                                    
                                                                                                    
                                                                                                    
                                                                                                    
                                                                                                    
                                                                                                    
                                                                                                    
                                                                                                    
                                                                                                    
                                                                                                    
                           
<?xpacket end="w"?></metadata>
<defs>
    <style>
      .cls-1 {
        fill: #00bac0;
        fill-rule: evenodd;
      }
    </style>
  </defs>
  <path id="Forma_1_copy" data-name="Forma 1 copy" class="cls-1" d="M700,3368a0.935,0.935,0,1,1-.938.94A0.938,0.938,0,0,1,700,3368Zm0,22.12a0.94,0.94,0,1,1-.938.94A0.938,0.938,0,0,1,700,3390.12Zm-11.063-11.06a0.94,0.94,0,1,1-.937.94A0.938,0.938,0,0,1,688.937,3379.06Zm22.125,0a0.94,0.94,0,1,1-.937.94A0.938,0.938,0,0,1,711.062,3379.06Zm-3.728-6.04a0.942,0.942,0,0,0,1.151-.14,0.936,0.936,0,1,0-1.466-.18,10.121,10.121,0,0,0-14.039,0,0.936,0.936,0,1,0-1.466.18,0.944,0.944,0,0,0,1.152.14A10.125,10.125,0,1,0,707.334,3373.02Zm0.863,6.04h-5.545q-0.051-.135-0.114-0.27l3.918-3.92A8.218,8.218,0,0,1,708.2,3379.06Zm-7.26-7.26a8.209,8.209,0,0,1,4.193,1.74l-3.918,3.92a2.627,2.627,0,0,0-.275-0.11v-5.55Zm-1.875,0v5.55a2.7,2.7,0,0,0-.274.11l-3.919-3.92A8.213,8.213,0,0,1,699.062,3371.8Zm-5.519,3.07,3.919,3.92q-0.064.135-.114,0.27H691.8A8.225,8.225,0,0,1,693.543,3374.87Zm-1.74,6.07h5.545q0.05,0.135.114,0.27l-3.919,3.92A8.225,8.225,0,0,1,691.8,3380.94Zm7.259,7.26a8.3,8.3,0,0,1-4.193-1.74l3.919-3.92a2.7,2.7,0,0,0,.274.11v5.55h0Zm0.938-7.26a0.94,0.94,0,1,1,.937-0.94A0.939,0.939,0,0,1,700,3380.94Zm0.937,7.26v-5.55a2.627,2.627,0,0,0,.275-0.11l3.918,3.92A8.3,8.3,0,0,1,700.937,3388.2Zm5.519-3.07-3.918-3.92q0.063-.135.114-0.27H708.2A8.218,8.218,0,0,1,706.456,3385.13Zm-14.279,1.76a0.935,0.935,0,1,1-.937.94A0.938,0.938,0,0,1,692.177,3386.89Zm15.645,0a0.935,0.935,0,1,1-.937.94A0.938,0.938,0,0,1,707.822,3386.89Z" transform="translate(-688 -3368)"/>
</svg>
