<svg xmlns="http://www.w3.org/2000/svg" width="64" height="60.82" viewBox="0 0 64 60.82">
  <metadata><?xpacket begin="﻿" id="W5M0MpCehiHzreSzNTczkc9d"?>
<x:xmpmeta xmlns:x="adobe:ns:meta/" x:xmptk="Adobe XMP Core 5.6-c138 79.159824, 2016/09/14-01:09:01        ">
   <rdf:RDF xmlns:rdf="http://www.w3.org/1999/02/22-rdf-syntax-ns#">
      <rdf:Description rdf:about=""/>
   </rdf:RDF>
</x:xmpmeta>
                                                                                                    
                                                                                                    
                                                                                                    
                                                                                                    
                                                                                                    
                                                                                                    
                                                                                                    
                                                                                                    
                                                                                                    
                                                                                                    
                                                                                                    
                                                                                                    
                                                                                                    
                                                                                                    
                                                                                                    
                                                                                                    
                                                                                                    
                                                                                                    
                                                                                                    
                                                                                                    
                           
<?xpacket end="w"?></metadata>
<defs>
    <style>
      .cls-1 {
        fill: #00bac0;
        fill-rule: evenodd;
      }
    </style>
  </defs>
  <path class="cls-1" d="M384.62,3988.34a1.089,1.089,0,0,0,1.542,0l0.992-.99a1.086,1.086,0,0,0,0-1.54,1.088,1.088,0,0,0-1.541,0l-0.222.22-0.232-.23a1.091,1.091,0,0,0-1.861.77,1.09,1.09,0,0,0,.32.77Zm43.67,23.97a1.066,1.066,0,0,0,.77-0.32l0.993-.99a1.089,1.089,0,0,0,0-1.54,1.089,1.089,0,0,0-1.542,0l-0.221.22-0.232-.23a1.089,1.089,0,0,0-1.542,0,1.089,1.089,0,0,0,0,1.54l1,1A1.066,1.066,0,0,0,428.29,4012.31Zm-16.679,8.7a1.11,1.11,0,0,0,.771-0.32l0.992-.99a1.09,1.09,0,0,0,.32-0.77,1.09,1.09,0,0,0-1.861-.77l-0.222.22-0.232-.23a1.09,1.09,0,0,0-1.861.77,1.09,1.09,0,0,0,.32.77l1,1A1.11,1.11,0,0,0,411.611,4021.01Zm24.175-38.96a1.084,1.084,0,0,0-1.492-.26,97.342,97.342,0,0,1-26.142,12.27l-0.23.06-0.114.04-0.124.03c-0.089.02-.177,0.05-0.267,0.07-0.75.2-1.5,0.39-2.236,0.56l-0.054.02a2.481,2.481,0,0,1-.263.05l-0.134.04-0.122.02c-0.068.02-.136,0.03-0.2,0.05-0.242.05-.49,0.1-0.738,0.16h-0.049l-0.028.01a85.4,85.4,0,0,1-16.994,1.59,102.834,102.834,0,0,1-13.355-.85h-0.146a1.082,1.082,0,0,0-1.073.91,1.083,1.083,0,0,0,.929,1.25c1.121,0.15,2.952.37,5.326,0.55l5.157,13.2a0.729,0.729,0,0,0,.689.47,0.721,0.721,0,0,0,.634-0.36l7.355-12.39,7.221,10.26a0.733,0.733,0,0,0,1.282-.13l5.2-12.03,9.97,8.52a0.709,0.709,0,0,0,.477.18,0.735,0.735,0,0,0,.732-0.62l1.958-12.41,12.04,7.78a0.72,0.72,0,0,0,.4.12,0.76,0.76,0,0,0,.548-0.24,0.725,0.725,0,0,0,.189-0.56l-1.16-13.97c2.06-1.21,3.609-2.21,4.549-2.85a1.071,1.071,0,0,0,.464-0.71A1.1,1.1,0,0,0,435.786,3982.05Zm-6.078,15.62-9.079-5.86c2.764-1.24,5.538-2.64,8.247-4.15Zm-12.991-4.21-1.48,9.37-7.5-6.4c0.285-.08.563-0.15,0.827-0.23,0.1-.02.2-0.05,0.307-0.08l0.013-.01,0.735-.21,0.51-.15c0.089-.03.177-0.05,0.266-0.08l0.068-.02C412.533,3995.02,414.635,3994.28,416.717,3993.46Zm-13.176,3.94-3.907,9.05-5.474-7.79c2.2-.17,4.377-0.42,6.47-0.75l0.156-.02c0.35-.06.673-0.11,0.985-0.16l0.311-.06,0.045-.01c0.269-.04.538-0.09,0.8-0.14l0.469-.09,0.136-.03h0.009Zm-13.582,1.49-5.57,9.39-3.708-9.5c1.967,0.11,3.945.17,5.881,0.17C387.7,3998.95,388.84,3998.93,389.959,3998.89Zm43.889,28h-0.081c-1.128.08-3.483,0.22-6.577,0.22a93.591,93.591,0,0,1-22.214-2.55c-0.2-.04-0.39-0.09-0.585-0.15l-0.071-.01-0.083-.03c-0.752-.19-1.5-0.4-2.221-0.62l-0.053-.02a0.274,0.274,0,0,1-.088-0.02l-0.061-.02c-0.5-.15-1.031-0.32-1.566-0.5-12.694-4.21-23.485-12.04-26.489-14.34a1.067,1.067,0,0,0-.662-0.23,1.1,1.1,0,0,0-.845.4,1.083,1.083,0,0,0,.18,1.55c0.9,0.69,2.38,1.79,4.35,3.12l-2.1,14.02a0.744,0.744,0,0,0,.168.59,0.764,0.764,0,0,0,.563.26,0.782,0.782,0,0,0,.363-0.1l12.555-7.11,1.151,12.5a0.737,0.737,0,0,0,.737.67,0.715,0.715,0,0,0,.441-0.15l10.5-7.86,4.407,12.34a0.736,0.736,0,0,0,1.271.21l7.877-9.79,6.573,12.72a0.709,0.709,0,0,0,.656.4,0.73,0.73,0,0,0,.668-0.42l5.949-12.69c2.391-.03,4.237-0.14,5.368-0.22A1.086,1.086,0,0,0,433.848,4026.89Zm-7.7,2.4-4.266,9.1-4.956-9.59C419.937,4029.1,423.038,4029.26,426.145,4029.29Zm-13.438-1-5.955,7.4-3.314-9.28a0.225,0.225,0,0,0,.078.02c0.235,0.07.469,0.13,0.7,0.19l0.481,0.12,0.5,0.12c0.2,0.05.4,0.09,0.6,0.14,0.03,0.01.06,0.01,0.09,0.02l0.074,0.02C408.14,4027.54,410.408,4027.96,412.707,4028.29Zm-13.4-3.12-7.895,5.91-0.873-9.47c2.072,0.98,4.163,1.87,6.218,2.65l0.092,0.04c0.041,0.01.081,0.03,0.121,0.04,0.178,0.07.357,0.13,0.535,0.2l0.588,0.21,0.057,0.02c0.12,0.04.239,0.09,0.358,0.13C398.763,4024.99,399.024,4025.08,399.31,4025.17Zm-12.527-5.44-9.508,5.38,1.511-10.08C381.413,4016.73,384.1,4018.31,386.783,4019.73Z" transform="translate(-372 -3981.59)"/>
</svg>
