<svg xmlns="http://www.w3.org/2000/svg" width="64" height="50.75" viewBox="0 0 64 50.75">
  <metadata><?xpacket begin="﻿" id="W5M0MpCehiHzreSzNTczkc9d"?>
<x:xmpmeta xmlns:x="adobe:ns:meta/" x:xmptk="Adobe XMP Core 5.6-c138 79.159824, 2016/09/14-01:09:01        ">
   <rdf:RDF xmlns:rdf="http://www.w3.org/1999/02/22-rdf-syntax-ns#">
      <rdf:Description rdf:about=""/>
   </rdf:RDF>
</x:xmpmeta>
                                                                                                    
                                                                                                    
                                                                                                    
                                                                                                    
                                                                                                    
                                                                                                    
                                                                                                    
                                                                                                    
                                                                                                    
                                                                                                    
                                                                                                    
                                                                                                    
                                                                                                    
                                                                                                    
                                                                                                    
                                                                                                    
                                                                                                    
                                                                                                    
                                                                                                    
                                                                                                    
                           
<?xpacket end="w"?></metadata>
<defs>
    <style>
      .cls-1 {
        fill: #00bac0;
        fill-rule: evenodd;
      }
    </style>
  </defs>
  <path class="cls-1" d="M698.963,4030.87H684.856a26.759,26.759,0,0,0,10.585-9.46,1.045,1.045,0,0,0,0-1.12,26.957,26.957,0,0,0-10.014-9.17,30,30,0,0,0-14.083-3.48,29.191,29.191,0,0,0-18.8,6.67,28.622,28.622,0,0,0-9.652-5.23,1.033,1.033,0,0,0-1.349.92c-0.079,1.36,0,5.99,4.091,10.85a16.322,16.322,0,0,0-4.1,10.02h-4.5a1.04,1.04,0,0,0,0,2.08h8.328l2.011,2.68a4.375,4.375,0,0,0,3.484,1.74h34.28a4.375,4.375,0,0,0,3.484-1.74l2.011-2.68h8.328A1.04,1.04,0,0,0,698.963,4030.87Zm-5.638-10.02a25.159,25.159,0,0,1-8.838,7.87,11.125,11.125,0,0,1,.006-15.74A24.8,24.8,0,0,1,693.325,4020.85Zm-11.986,8.85a2.223,2.223,0,0,1-.33,1.17h-3.9a2.232,2.232,0,0,1-.33-1.17A2.281,2.281,0,0,1,681.339,4029.7Zm1.195-17.67a13.231,13.231,0,0,0-2.563,13.41,4.568,4.568,0,0,0-.913-0.1,4.266,4.266,0,0,0-1.478.26,14.628,14.628,0,0,1,2.884-14.38Q681.517,4011.58,682.534,4012.03Zm-7.773,9.86a16.787,16.787,0,0,0,.489,3.15,5.366,5.366,0,0,0-2.827-.8,5.114,5.114,0,0,0-4.416,2.25,5.393,5.393,0,0,0-3.325-1.15,5.453,5.453,0,0,0-4.364,2.22h-0.059a4.339,4.339,0,0,0-2.6.86,25.97,25.97,0,0,1-4.425-3.17,1.018,1.018,0,0,0-1.381,0,26.451,26.451,0,0,1-8.2,4.91,15.064,15.064,0,0,1,4.121-8.61,1.032,1.032,0,0,0,0-1.4,15.064,15.064,0,0,1-4.121-8.61,26.26,26.26,0,0,1,8.2,4.91,1.039,1.039,0,0,0,1.381,0,27.076,27.076,0,0,1,18.108-6.73,28.347,28.347,0,0,1,6.954.86,16.572,16.572,0,0,0-3.532,9.23H660.75a1.04,1.04,0,0,0,0,2.08h14.011Zm0.105,8.98h-5.615a3.322,3.322,0,0,1-.214-1.17,3.382,3.382,0,0,1,6.137-1.97,4.367,4.367,0,0,0-.47,1.97A4.244,4.244,0,0,0,674.866,4030.87Zm-7.771,0H658.23a2.291,2.291,0,0,1,2.029-1.24,2.189,2.189,0,0,1,.4.04,1.038,1.038,0,0,0,1.086-.51,3.347,3.347,0,0,1,5.361-.7,5.437,5.437,0,0,0-.143,1.24A5.285,5.285,0,0,0,667.1,4030.87Zm-19.907,0a28.1,28.1,0,0,0,5.357-3.48,27.673,27.673,0,0,0,3.782,2.65,4.434,4.434,0,0,0-.3.83h-8.843Zm39.777,3.52a2.3,2.3,0,0,1-1.825.91H650.86a2.292,2.292,0,0,1-1.825-.91l-1.078-1.44h40.086Zm-0.692-13.61a1.59,1.59,0,1,0-1.59-1.59A1.59,1.59,0,0,0,686.273,4020.78Zm-21.521-22.05a4.946,4.946,0,0,0,1.333,3.41,2.955,2.955,0,0,1,.878,2.12,1.037,1.037,0,0,0,2.074,0,4.974,4.974,0,0,0-1.334-3.42,2.914,2.914,0,0,1-.878-2.11,2.956,2.956,0,0,1,.879-2.12,5.041,5.041,0,0,0,0-6.83,2.956,2.956,0,0,1-.879-2.12,1.037,1.037,0,1,0-2.073,0,4.978,4.978,0,0,0,1.332,3.42,2.984,2.984,0,0,1,0,4.23A4.978,4.978,0,0,0,664.752,3998.73Zm5.6,1.03a1.03,1.03,0,0,0,.812-0.39,9.323,9.323,0,0,0,2.3-6.17,9.212,9.212,0,0,0-.765-3.75,1.035,1.035,0,0,0-1.9.83,7.425,7.425,0,0,1-1.25,7.79A1.032,1.032,0,0,0,670.348,3999.76Zm-8.316,3.31a1.2,1.2,0,0,0,.415-0.08,1.044,1.044,0,0,0,.534-1.37,7.414,7.414,0,0,1,1.269-7.77c0.018-.03.036-0.05,0.053-0.08a1.039,1.039,0,0,0-1.439-1.44,0.966,0.966,0,0,0-.3.3,9.473,9.473,0,0,0-1.485,9.82A1.034,1.034,0,0,0,662.032,4003.07Zm-5.932,18.75a1.04,1.04,0,0,0,0-2.08h-1.222a1.04,1.04,0,0,0,0,2.08H656.1Z" transform="translate(-636 -3986.63)"/>
</svg>
