<svg xmlns="http://www.w3.org/2000/svg" width="64" height="59.82" viewBox="0 0 64 59.82">
  <metadata><?xpacket begin="﻿" id="W5M0MpCehiHzreSzNTczkc9d"?>
<x:xmpmeta xmlns:x="adobe:ns:meta/" x:xmptk="Adobe XMP Core 5.6-c138 79.159824, 2016/09/14-01:09:01        ">
   <rdf:RDF xmlns:rdf="http://www.w3.org/1999/02/22-rdf-syntax-ns#">
      <rdf:Description rdf:about=""/>
   </rdf:RDF>
</x:xmpmeta>
                                                                                                    
                                                                                                    
                                                                                                    
                                                                                                    
                                                                                                    
                                                                                                    
                                                                                                    
                                                                                                    
                                                                                                    
                                                                                                    
                                                                                                    
                                                                                                    
                                                                                                    
                                                                                                    
                                                                                                    
                                                                                                    
                                                                                                    
                                                                                                    
                                                                                                    
                                                                                                    
                           
<?xpacket end="w"?></metadata>
<defs>
    <style>
      .cls-1 {
        fill: #00bac0;
        fill-rule: evenodd;
      }
    </style>
  </defs>
  <path class="cls-1" d="M772.005,4161.12a1,1,0,0,0,.293.71,1,1,0,0,0,1.411,0l0.644-.64,0.643,0.64a1,1,0,0,0,1.412,0,1,1,0,0,0,0-1.41l-0.643-.64,0.643-.65a0.956,0.956,0,0,0,.292-0.7,1,1,0,0,0-.292-0.71,1,1,0,0,0-1.412,0l-0.643.65-0.644-.65a1,1,0,0,0-1.411,0,1,1,0,0,0-.293.71,0.957,0.957,0,0,0,.293.7l0.643,0.65-0.643.64A0.991,0.991,0,0,0,772.005,4161.12Zm49.295,0a1,1,0,0,0,.292.71,1,1,0,0,0,1.412,0l0.643-.64,0.643,0.64a1,1,0,0,0,1.412,0,1,1,0,0,0,0-1.41l-0.643-.64,0.643-.65a1,1,0,0,0,0-1.41,1,1,0,0,0-1.412,0l-0.643.65-0.643-.65a1,1,0,0,0-1.412,0,1,1,0,0,0,0,1.41l0.643,0.65-0.643.64A0.99,0.99,0,0,0,821.3,4161.12Zm-20.951-5.33a0.992,0.992,0,0,0,.706-0.3,0.974,0.974,0,0,0,.293-0.7,1,1,0,0,0-.293-0.71l-0.643-.64,0.643-.64a1,1,0,1,0-1.412-1.41l-0.643.64-0.643-.64a1,1,0,1,0-1.412,1.41l0.643,0.64-0.643.64a1,1,0,1,0,1.412,1.41l0.643-.64,0.643,0.64A0.994,0.994,0,0,0,800.349,4155.79Zm-2.9,12.88-14.549-5.5a2.2,2.2,0,0,0-2.785,1.11l-5.432,11.21a11.118,11.118,0,0,0-.79,2.2s0,0,0,.01-0.009.03-.012,0.04a11.09,11.09,0,0,0,.03,5.31l0,0.02,0.006,0.03c0.021,0.08.043,0.16,0.067,0.25s0.062,0.21.1,0.32c0.014,0.04.028,0.08,0.042,0.13,0.077,0.23.156,0.45,0.24,0.66,0.008,0.02.017,0.04,0.026,0.06s0.014,0.03.02,0.05c0.032,0.08.066,0.15,0.1,0.23l0.008,0.02c0.038,0.09.075,0.17,0.115,0.26,0.017,0.03.034,0.07,0.052,0.1l0.029,0.06a10.843,10.843,0,0,0,.557,1l0.025,0.04c0.032,0.05.064,0.1,0.1,0.15,0.048,0.08.1,0.15,0.147,0.22l0,0.01c0.054,0.08.108,0.15,0.164,0.23,0.046,0.06.092,0.13,0.139,0.19,0.066,0.08.136,0.17,0.212,0.27l0.02,0.02,0.093,0.12c0.089,0.1.184,0.21,0.291,0.33l0.024,0.03,0.033,0.03a10.719,10.719,0,0,0,1.692,1.5l0.02,0.01,0.01,0.01c0.138,0.1.282,0.2,0.426,0.29a0.224,0.224,0,0,0,.067.04c0.131,0.09.267,0.17,0.4,0.25l0.025,0.01a0.246,0.246,0,0,0,.069.04c0.122,0.07.249,0.14,0.39,0.21l0.043,0.02a0.251,0.251,0,0,0,.073.04c0.007,0,.013.01,0.02,0.01l-4.383,11.57a1.286,1.286,0,0,0-.277-0.04,0.755,0.755,0,0,0-.257.04l-6.864,1.77a1.3,1.3,0,0,0-.133,2.47l12.431,4.7a1.451,1.451,0,0,0,.461.08,1.295,1.295,0,0,0,1.072-2.02l-3.966-5.87a1.043,1.043,0,0,0-.4-0.35l4.382-11.57a11.13,11.13,0,0,0,13.622-7.75l3.36-12A2.206,2.206,0,0,0,797.45,4168.67Zm-21.125,35.76,2.457,3.63-7.994-3.02,4.252-1.1Zm6.933-27.94a1.024,1.024,0,0,0,.787,1.68,0.3,0.3,0,0,0,.094-0.01l10.9-.99-1.574,5.62a9.119,9.119,0,0,1-11.973,6.05c-0.133-.05-0.269-0.11-0.416-0.17l-0.062-.03-0.04-.02a3.2,3.2,0,0,1-.313-0.15l-0.069-.03-0.027-.01c-0.116-.06-0.221-0.12-0.322-0.18l-0.067-.04c-0.134-.07-0.255-0.15-0.369-0.22a9.572,9.572,0,0,1-1.461-1.16l-0.01-.01-0.005-.01c-0.106-.1-0.21-0.21-0.311-0.32l-0.007-.01a8.9,8.9,0,0,1-.586-0.7,0.138,0.138,0,0,0-.029-0.04l-0.027-.04c-0.064-.09-0.128-0.18-0.19-0.27-0.03-.04-0.059-0.09-0.089-0.13-0.049-.08-0.1-0.15-0.143-0.23l-0.007-.01c-0.029-.05-0.057-0.1-0.085-0.14-0.048-.09-0.094-0.17-0.133-0.24l-0.029-.05c-0.016-.03-0.033-0.06-0.048-0.09-0.066-.13-0.129-0.25-0.186-0.38l-0.026-.06c-0.006-.01-0.013-0.03-0.02-0.04-0.053-.12-0.1-0.22-0.133-0.31a0.507,0.507,0,0,0-.028-0.07l-0.015-.04c-0.048-.12-0.089-0.24-0.127-0.35l-0.008-.02-0.013-.04a9.105,9.105,0,0,1-.358-4.3l3.69-.34a1.022,1.022,0,0,0-.091-2.04h-0.1l-2.9.27c0.067-.16.13-0.3,0.194-0.43l5.432-11.22a0.172,0.172,0,0,1,.153-0.1c0.02,0,.041.01,0.061,0.01l14.549,5.51a0.166,0.166,0,0,1,.1.2l-1.195,4.27-11.68,1.06A1.047,1.047,0,0,0,783.258,4176.49Zm47.733,28.35a1.3,1.3,0,0,0-.968-1.19l-6.864-1.77a0.758,0.758,0,0,0-.257-0.04,1.286,1.286,0,0,0-.278.04l-4.382-11.57a0.02,0.02,0,0,0,.02-0.01,0.251,0.251,0,0,0,.073-0.04l0.044-.02c0.141-.07.268-0.14,0.389-0.21a0.246,0.246,0,0,0,.069-0.04l0.026-.01c0.135-.08.27-0.16,0.4-0.25l0.067-.04c0.144-.09.287-0.19,0.425-0.29l0.013-.01,0.018-.01a10.719,10.719,0,0,0,1.692-1.5l0.033-.03,0.026-.03c0.106-.12.2-0.23,0.288-0.33,0.034-.04.068-0.09,0.1-0.13l0.014-.01q0.111-.135.21-0.27c0.048-.06.095-0.13,0.141-0.19,0.055-.08.108-0.15,0.161-0.23l0-.01c0.051-.07.1-0.14,0.15-0.22a1.477,1.477,0,0,0,.09-0.14l0.029-.05a9.88,9.88,0,0,0,.564-1.01l0.03-.06,0.047-.09c0.04-.09.077-0.17,0.115-0.26l0.009-.02c0.033-.08.067-0.15,0.1-0.23a0.25,0.25,0,0,0,.021-0.05l0.026-.06c0.084-.21.165-0.43,0.24-0.66,0.014-.05.028-0.09,0.041-0.13,0.035-.11.067-0.22,0.1-0.33,0.023-.08.044-0.16,0.066-0.24l0.007-.03,0-.02a11.1,11.1,0,0,0,.029-5.31c0-.01-0.008-0.03-0.013-0.04a0.146,0.146,0,0,1,0-.02,11.191,11.191,0,0,0-.789-2.19l-5.433-11.21a2.2,2.2,0,0,0-2.784-1.11l-14.549,5.5a2.206,2.206,0,0,0-1.352,2.67l3.36,12a11.121,11.121,0,0,0,5.7,6.94c0.267,0.13.548,0.26,0.835,0.38a11.232,11.232,0,0,0,7.085.43l4.381,11.57a1.043,1.043,0,0,0-.4.35l-3.966,5.87a1.295,1.295,0,0,0,1.072,2.02,1.446,1.446,0,0,0,.461-0.08l12.432-4.7A1.293,1.293,0,0,0,830.991,4204.84ZM805.7,4177.42h0.1a1.022,1.022,0,0,0,.09-2.04l-3.517-.32-1.195-4.27a0.166,0.166,0,0,1,.1-0.2l14.549-5.5a0.142,0.142,0,0,1,.061-0.02,0.171,0.171,0,0,1,.152.1l5.433,11.22c0.064,0.13.126,0.27,0.193,0.43l-10.846-.99h-0.094a1.022,1.022,0,0,0-.092,2.04l11.632,1.06a9.106,9.106,0,0,1-.359,4.3,0.614,0.614,0,0,0-.021.07c-0.036.1-.078,0.21-0.126,0.34l-0.015.04a0.654,0.654,0,0,0-.029.07c-0.037.09-.081,0.19-0.132,0.31l-0.019.04c-0.009.02-.018,0.04-0.028,0.06-0.057.13-.12,0.25-0.185,0.38l-0.048.09-0.029.05c-0.039.07-.085,0.15-0.133,0.24-0.028.04-.057,0.09-0.085,0.14l-0.008.01c-0.047.08-.094,0.15-0.143,0.23-0.029.04-.059,0.09-0.089,0.13-0.06.09-.124,0.18-0.19,0.27l-0.023.03c-0.011.02-.022,0.03-0.033,0.05-0.183.24-.379,0.48-0.582,0.7h0l-0.007.01c-0.1.11-.205,0.22-0.311,0.32l-0.01.01,0,0.01a9.833,9.833,0,0,1-1.456,1.16c-0.119.07-.24,0.15-0.375,0.23l-0.024.01-0.042.02c-0.1.06-.206,0.12-0.322,0.18l-0.027.01-0.069.03c-0.093.05-.2,0.1-0.313,0.15l-0.045.02-0.057.03c-0.147.06-.283,0.12-0.416,0.17a9.025,9.025,0,0,1-3.215.58,9.067,9.067,0,0,1-8.758-6.63l-1.574-5.62Zm21.513,27.62-7.993,3.02,2.456-3.63,1.286-.49Z" transform="translate(-767 -4151.09)"/>
</svg>
