<svg xmlns="http://www.w3.org/2000/svg" width="64" height="58.62" viewBox="0 0 64 58.62">
  <metadata><?xpacket begin="﻿" id="W5M0MpCehiHzreSzNTczkc9d"?>
<x:xmpmeta xmlns:x="adobe:ns:meta/" x:xmptk="Adobe XMP Core 5.6-c138 79.159824, 2016/09/14-01:09:01        ">
   <rdf:RDF xmlns:rdf="http://www.w3.org/1999/02/22-rdf-syntax-ns#">
      <rdf:Description rdf:about=""/>
   </rdf:RDF>
</x:xmpmeta>
                                                                                                    
                                                                                                    
                                                                                                    
                                                                                                    
                                                                                                    
                                                                                                    
                                                                                                    
                                                                                                    
                                                                                                    
                                                                                                    
                                                                                                    
                                                                                                    
                                                                                                    
                                                                                                    
                                                                                                    
                                                                                                    
                                                                                                    
                                                                                                    
                                                                                                    
                                                                                                    
                           
<?xpacket end="w"?></metadata>
<defs>
    <style>
      .cls-1 {
        fill: #00bac0;
        fill-rule: evenodd;
      }
    </style>
  </defs>
  <path class="cls-1" d="M552.317,4170.15l7.764-9.71a1.169,1.169,0,0,0,.109-1.31l-4.339-6.51a1.322,1.322,0,0,0-.868-0.43H539.8a1.917,1.917,0,0,0-.977.43l-4.339,6.51a1.212,1.212,0,0,0,0,1.18,0.927,0.927,0,0,0,.274.34l7.612,9.52a19.625,19.625,0,0,0-6.307,2.88,20.184,20.184,0,0,0-11.455-3.49,20.625,20.625,0,0,0,0,41.25,19.611,19.611,0,0,0,11.324-3.5,20.2,20.2,0,0,0,11.456,3.5A20.631,20.631,0,0,0,552.317,4170.15Zm-14.6-9.28h2.731l4.339,4.34H541.2Zm5.769-2.17,3.9-3.91,3.9,3.91h-7.81Zm7.81,2.17-3.9,3.91-3.906-3.91h7.811Zm3.037,0h2.636l-3.433,4.34h-3.542Zm2.942-2.17h-2.942l-4.339-4.34h4.447Zm-16.935-4.34h4.447l-4.339,4.34h-3.03Zm4.339,15.2-1.741-2.18h8.881l-1.716,2.18h-5.424Zm-38.509,20.62a18.432,18.432,0,0,1,18.441-18.45,17.505,17.505,0,0,1,10.739,3.58c0.353,0.24.7,0.5,1.036,0.77s0.666,0.56.984,0.86,0.627,0.61.924,0.94c0.148,0.16.294,0.32,0.436,0.49s0.281,0.35.417,0.52a17.868,17.868,0,0,1,3.905,11.29,18.375,18.375,0,0,1-3.349,10.51,13.057,13.057,0,0,1-1.328-1.07,9.37,9.37,0,0,1-1.072-1.19,15.013,15.013,0,0,0,2.494-8.25,14.629,14.629,0,0,0-2.928-8.9c-0.075-.1-0.15-0.2-0.227-0.3a15.224,15.224,0,0,0-3.17-3.08c-0.3-.22-0.617-0.43-0.942-0.64a0.828,0.828,0,0,0-.137-0.08,14.65,14.65,0,0,0-7.782-2.2,15.2,15.2,0,0,0,0,30.4,15.041,15.041,0,0,0,7.083-1.8,21.116,21.116,0,0,0,2.429,2.37,18.712,18.712,0,0,1-9.512,2.69A18.433,18.433,0,0,1,506.169,4190.18Zm35.453-11.67a12.9,12.9,0,0,1,5.768-1.35,13.025,13.025,0,0,1,0,26.05,12.9,12.9,0,0,1-5.768-1.35A20.741,20.741,0,0,0,541.622,4178.51Zm-7.249,11.67a12.889,12.889,0,0,1,1.642-6.29,13.256,13.256,0,0,1,1.612,6.29,12.833,12.833,0,0,1-1.642,6.29A13.2,13.2,0,0,1,534.373,4190.18Zm-4-11.67a20.741,20.741,0,0,0,0,23.35,12.9,12.9,0,0,1-5.768,1.35,13.03,13.03,0,0,1,0-26.06A12.912,12.912,0,0,1,530.378,4178.51Zm17.012,30.13a17.568,17.568,0,0,1-10.739-3.58,17.236,17.236,0,0,1-3.38-3.07c-0.142-.17-0.281-0.34-0.417-0.52a17.828,17.828,0,0,1-3.905-11.29,18.428,18.428,0,0,1,3.348-10.51c0.218,0.16.431,0.32,0.64,0.49a17.635,17.635,0,0,1,1.761,1.77,15.039,15.039,0,0,0-2.5,8.25,14.632,14.632,0,0,0,2.929,8.91,15.351,15.351,0,0,0,4.339,4.01,0.851,0.851,0,0,0,.137.09,14.64,14.64,0,0,0,7.782,2.19,15.2,15.2,0,0,0,0-30.4,14.934,14.934,0,0,0-7.083,1.81,21.045,21.045,0,0,0-2.43-2.37,18.718,18.718,0,0,1,9.513-2.69A18.455,18.455,0,0,1,547.39,4208.64Z" transform="translate(-504 -4152.19)"/>
</svg>
