<svg xmlns="http://www.w3.org/2000/svg" width="64" height="47.41" viewBox="0 0 64 47.41">
  <metadata><?xpacket begin="﻿" id="W5M0MpCehiHzreSzNTczkc9d"?>
<x:xmpmeta xmlns:x="adobe:ns:meta/" x:xmptk="Adobe XMP Core 5.6-c138 79.159824, 2016/09/14-01:09:01        ">
   <rdf:RDF xmlns:rdf="http://www.w3.org/1999/02/22-rdf-syntax-ns#">
      <rdf:Description rdf:about=""/>
   </rdf:RDF>
</x:xmpmeta>
                                                                                                    
                                                                                                    
                                                                                                    
                                                                                                    
                                                                                                    
                                                                                                    
                                                                                                    
                                                                                                    
                                                                                                    
                                                                                                    
                                                                                                    
                                                                                                    
                                                                                                    
                                                                                                    
                                                                                                    
                                                                                                    
                                                                                                    
                                                                                                    
                                                                                                    
                                                                                                    
                           
<?xpacket end="w"?></metadata>
<defs>
    <style>
      .cls-1 {
        fill: #00bac0;
        fill-rule: evenodd;
      }
    </style>
  </defs>
  <path class="cls-1" d="M926.673,4001.6a1.036,1.036,0,0,0-2.066.16l0.482,6.03a1.035,1.035,0,0,0,1.032.95H926.2a1.043,1.043,0,0,0,.951-1.12Zm-1.349-2.82h0.084a1.043,1.043,0,0,0,.95-1.12l-0.119-1.49a1.036,1.036,0,1,0-2.066.17l0.119,1.49A1.035,1.035,0,0,0,925.324,3998.78Zm37.133,30.71h-7.809v-21.07a1.041,1.041,0,0,0-1.036-1.04h-3.386v-2.47a4.37,4.37,0,0,0,3.317-4.23c0-2-2.874-7.22-3.45-8.25a1.035,1.035,0,0,0-1.807,0c-0.576,1.03-3.45,6.25-3.45,8.25a4.369,4.369,0,0,0,3.317,4.23v2.47h-3.386a1.041,1.041,0,0,0-1.036,1.04v21.07h-2.35v-11.12a1.041,1.041,0,0,0-1.036-1.04h-2.281v-2.52a3.252,3.252,0,0,0,2.212-3.08c0-1.36-1.78-4.93-2.326-6a1.039,1.039,0,0,0-1.844,0c-0.546,1.07-2.326,4.64-2.326,6a3.252,3.252,0,0,0,2.211,3.08v2.52h-2.28a1.041,1.041,0,0,0-1.036,1.04v11.12h-12.3v-9.03a12.245,12.245,0,0,0,11.188-13.19l-1.241-15.52a1.032,1.032,0,0,0-1.033-.95h-19.9a1.032,1.032,0,0,0-1.033.95l-1.242,15.52a12.245,12.245,0,0,0,11.189,13.19v9.03H900.543a1.04,1.04,0,0,0,0,2.08h11.066l2.748,4.31a5.642,5.642,0,0,1-1.652.25,1.035,1.035,0,1,0,0,2.07h40.907a1.035,1.035,0,0,0,1.036-1.04v-5.59h7.809A1.04,1.04,0,0,0,962.457,4029.49Zm-15.548-28.81c0-.85,1.149-3.37,2.283-5.56,1.564,2.99,2.278,5.01,2.278,5.56A2.281,2.281,0,0,1,946.909,4000.68Zm-11.056,11.05a14.007,14.007,0,0,1,1.175-3.15,14.06,14.06,0,0,1,1.175,3.15A1.175,1.175,0,1,1,935.853,4011.73Zm-1.1,7.67h4.56v10.09h-4.56V4019.4Zm-25.568-11.97,1.165-14.56h17.987l1.165,14.56a10.3,10.3,0,0,1-.26,3.27h-19.8A10.242,10.242,0,0,1,909.18,4007.43Zm2.67,7.73a10.248,10.248,0,0,1-1.648-2.39h18.273a10.253,10.253,0,0,1-1.649,2.39A10.187,10.187,0,0,1,911.85,4015.16Zm4.343,19.74-2.126-3.33H918.2A5.585,5.585,0,0,1,916.193,4034.9Zm1.748,1.23a7.712,7.712,0,0,0,1.4-1.76,7.744,7.744,0,0,0,1.4,1.76h-2.795Zm26.826,0h-18.8a5.606,5.606,0,0,1-5.5-4.56H948.93l-2.241,3.5A2.276,2.276,0,0,1,944.767,4036.13Zm7.808,0h-4.1l2.914-4.56h1.185v4.56Zm0-6.64H945.8v-20.04h6.771v20.04Z" transform="translate(-899.5 -3990.78)"/>
</svg>
