<svg xmlns="http://www.w3.org/2000/svg" width="64" height="60.62" viewBox="0 0 64 60.62">
  <metadata><?xpacket begin="﻿" id="W5M0MpCehiHzreSzNTczkc9d"?>
<x:xmpmeta xmlns:x="adobe:ns:meta/" x:xmptk="Adobe XMP Core 5.6-c138 79.159824, 2016/09/14-01:09:01        ">
   <rdf:RDF xmlns:rdf="http://www.w3.org/1999/02/22-rdf-syntax-ns#">
      <rdf:Description rdf:about=""/>
   </rdf:RDF>
</x:xmpmeta>
                                                                                                    
                                                                                                    
                                                                                                    
                                                                                                    
                                                                                                    
                                                                                                    
                                                                                                    
                                                                                                    
                                                                                                    
                                                                                                    
                                                                                                    
                                                                                                    
                                                                                                    
                                                                                                    
                                                                                                    
                                                                                                    
                                                                                                    
                                                                                                    
                                                                                                    
                                                                                                    
                           
<?xpacket end="w"?></metadata>
<defs>
    <style>
      .cls-1 {
        fill: #00bac0;
        fill-rule: evenodd;
      }
    </style>
  </defs>
  <path class="cls-1" d="M1094.94,4208.69h-5.03a3.871,3.871,0,0,0,.42-1.76v-11.26a3.368,3.368,0,0,0,2.19-3.15V4181.9a3.38,3.38,0,0,0-3.38-3.37h-6.12v-8.31a2.567,2.567,0,0,0-2.57-2.56h-0.4v-2.15a4.365,4.365,0,0,0,3.31-4.23c0-1.99-2.87-7.21-3.45-8.24a1.05,1.05,0,0,0-.9-0.52,1.014,1.014,0,0,0-.9.52c-0.58,1.03-3.45,6.25-3.45,8.24a4.365,4.365,0,0,0,3.31,4.23v2.15h-0.41a2.565,2.565,0,0,0-2.56,2.56v8.31h-6.99v-10.37a2.559,2.559,0,0,0-2.56-2.56h-0.41v-2.43a4.345,4.345,0,0,0,3.31-4.22c0-1.99-2.87-7.22-3.45-8.24a1.038,1.038,0,0,0-.9-0.52,1.014,1.014,0,0,0-.9.52c-0.58,1.02-3.45,6.25-3.45,8.24a4.345,4.345,0,0,0,3.31,4.22v2.43h-0.41a2.559,2.559,0,0,0-2.56,2.56v10.37h-6.96v-8.31a2.565,2.565,0,0,0-2.56-2.56h-0.44v-2.35a4.353,4.353,0,0,0,3.31-4.22c0-2-2.87-7.22-3.45-8.24a1.026,1.026,0,0,0-.9-0.53,1,1,0,0,0-.9.53c-0.58,1.02-3.45,6.24-3.45,8.24a4.353,4.353,0,0,0,3.31,4.22v2.35h-0.37a2.567,2.567,0,0,0-2.57,2.56v8.31h-6.15a3.38,3.38,0,0,0-3.38,3.37v10.62a3.368,3.368,0,0,0,2.19,3.15v11.26a3.871,3.871,0,0,0,.42,1.76h-5.03a1.06,1.06,0,1,0,0,2.12h61.88A1.06,1.06,0,0,0,1094.94,4208.69Zm-18.21-47.41c0-.84,1.15-3.37,2.29-5.55,1.57,2.99,2.28,5,2.28,5.55A2.285,2.285,0,0,1,1076.73,4161.28Zm-15.01-2.33c0-.85,1.15-3.37,2.29-5.55,1.57,2.99,2.28,5,2.28,5.55A2.285,2.285,0,0,1,1061.72,4158.95Zm-15.01,2.14c0-.85,1.15-3.37,2.29-5.56,1.57,3,2.28,5.01,2.28,5.56A2.285,2.285,0,0,1,1046.71,4161.09Zm30.42,9.13a0.44,0.44,0,0,1,.43-0.43h2.89a0.442,0.442,0,0,1,.44.43v8.31h-3.76v-8.31Zm-15.01-2.06a0.442,0.442,0,0,1,.43-0.44h2.9a0.442,0.442,0,0,1,.43.44v10.37h-3.76v-10.37Zm-14.98,2.06a0.442,0.442,0,0,1,.44-0.43h2.89a0.44,0.44,0,0,1,.43.43v8.31h-3.76v-8.31Zm-9.53,11.68a1.25,1.25,0,0,1,1.25-1.25h50.28a1.25,1.25,0,0,1,1.25,1.25v10.62a1.248,1.248,0,0,1-1.25,1.24,1.385,1.385,0,0,1-1.26-1.24v-4.38a3.605,3.605,0,0,0-7.21,0v0.9a1.485,1.485,0,0,1-2.97,0v-0.9a3.605,3.605,0,0,0-7.21,0v3.44a1.485,1.485,0,0,1-2.97,0v-3.44a3.61,3.61,0,0,0-7.22-.01l-0.02.89v0.02a1.48,1.48,0,0,1-2.96,0v-0.9a3.61,3.61,0,0,0-7.22,0v5.99a1.48,1.48,0,0,1-2.96,0v-5.99a3.61,3.61,0,0,0-7.22,0v4.38a1.068,1.068,0,0,1-1.06,1.24,1.248,1.248,0,0,1-1.25-1.24V4181.9Zm3.95,26.79a1.763,1.763,0,0,1-1.76-1.76v-0.94h3.77a1.06,1.06,0,0,0,0-2.12h-3.77v-8.1a3.22,3.22,0,0,0,2.25-3.25v-4.38a1.48,1.48,0,1,1,2.96,0v5.99a3.61,3.61,0,0,0,7.22,0v-5.99a1.48,1.48,0,1,1,2.96,0v0.9a3.61,3.61,0,0,0,7.22.02l0.02-.89v-0.03a1.48,1.48,0,1,1,2.96,0v3.44a3.61,3.61,0,0,0,7.22,0v-3.44a1.485,1.485,0,0,1,2.97,0v0.9a3.605,3.605,0,1,0,7.21,0v-0.9a1.485,1.485,0,0,1,2.97,0v4.38a3.5,3.5,0,0,0,2.44,3.21v1.64h-4.03a1.065,1.065,0,0,0,0,2.13h4.03v7.43a1.763,1.763,0,0,1-1.76,1.76h-44.88Zm42.29-4.82h-4.84a1.06,1.06,0,0,0,0,2.12h4.84A1.06,1.06,0,0,0,1083.85,4203.87Zm-16.71,0h-2.58a1.06,1.06,0,0,0,0,2.12h2.58A1.06,1.06,0,1,0,1067.14,4203.87Zm-12.59-4.24h-2.58a1.065,1.065,0,1,0,0,2.13h2.58A1.065,1.065,0,1,0,1054.55,4199.63Zm19.6-2.26h-2.59a1.065,1.065,0,0,0,0,2.13h2.59A1.065,1.065,0,0,0,1074.15,4197.37Zm-14.13,2.92a0.768,0.768,0,0,0-.1-0.18,1.092,1.092,0,0,0-.13-0.17c-0.05-.04-0.1-0.09-0.16-0.13a0.663,0.663,0,0,0-.19-0.09,0.7,0.7,0,0,0-.19-0.06,0.991,0.991,0,0,0-.42,0,1.192,1.192,0,0,0-.38.15c-0.06.04-.11,0.09-0.16,0.13a1.151,1.151,0,0,0-.14.17,0.756,0.756,0,0,0-.09.18,0.664,0.664,0,0,0-.06.2,0.761,0.761,0,0,0-.03.21,1.07,1.07,0,0,0,.32.75c0.05,0.04.1,0.09,0.16,0.13a1.618,1.618,0,0,0,.18.1c0.07,0.02.13,0.04,0.2,0.06a1.112,1.112,0,0,0,.42,0c0.06-.02.13-0.04,0.19-0.06a1.14,1.14,0,0,0,.19-0.1c0.06-.04.11-0.09,0.16-0.13a1.06,1.06,0,0,0,.31-0.75,1.492,1.492,0,0,0-.02-0.21A0.664,0.664,0,0,0,1060.02,4200.29Z" transform="translate(-1032 -4150.19)"/>
</svg>
