<svg xmlns="http://www.w3.org/2000/svg" width="64" height="49.5" viewBox="0 0 64 49.5">
  <metadata><?xpacket begin="﻿" id="W5M0MpCehiHzreSzNTczkc9d"?>
<x:xmpmeta xmlns:x="adobe:ns:meta/" x:xmptk="Adobe XMP Core 5.6-c138 79.159824, 2016/09/14-01:09:01        ">
   <rdf:RDF xmlns:rdf="http://www.w3.org/1999/02/22-rdf-syntax-ns#">
      <rdf:Description rdf:about=""/>
   </rdf:RDF>
</x:xmpmeta>
                                                                                                    
                                                                                                    
                                                                                                    
                                                                                                    
                                                                                                    
                                                                                                    
                                                                                                    
                                                                                                    
                                                                                                    
                                                                                                    
                                                                                                    
                                                                                                    
                                                                                                    
                                                                                                    
                                                                                                    
                                                                                                    
                                                                                                    
                                                                                                    
                                                                                                    
                                                                                                    
                           
<?xpacket end="w"?></metadata>
<defs>
    <style>
      .cls-1 {
        fill: #00bac0;
        fill-rule: evenodd;
      }
    </style>
  </defs>
  <path class="cls-1" d="M1181.16,4023.19a1.308,1.308,0,0,0-1.31,1.31v0.01a1.305,1.305,0,1,0,2.61,0v-0.01A1.306,1.306,0,0,0,1181.16,4023.19Zm43.83-21.33-21.75-10.73a19.17,19.17,0,0,0-16.49.11l-21.74,10.86a3.177,3.177,0,0,0,0,5.91l9.62,4.74v12.6a1.337,1.337,0,0,0,.38.92,30.269,30.269,0,0,0,39.98,0,1.337,1.337,0,0,0,.38-0.92v-12.72l3.4-1.7v11.09a4.175,4.175,0,0,0-2.87,3.96v11.52a1.3,1.3,0,0,0,1.3,1.3h5.75a1.3,1.3,0,0,0,1.3-1.3v-11.52a4.175,4.175,0,0,0-2.87-3.96v-12.39l3.62-1.81v-0.01A3.21,3.21,0,0,0,1224.99,4001.86Zm-16.68,25.97a27.93,27.93,0,0,1-26.6,0,25.364,25.364,0,0,1-4.47-3.05v-10.74l2.61,1.29v4.94a1.305,1.305,0,1,0,2.61,0v-3.66l7.36,3.63a12.028,12.028,0,0,0,10.37-.01l12.57-6.29v10.84h0A25.364,25.364,0,0,1,1208.31,4027.83Zm13.33-1.85v10.21h-3.13v-7.21h3.86a1.305,1.305,0,1,0,0-2.61h-3.86v-0.39A1.565,1.565,0,0,1,1221.64,4025.98Zm2.19-20.5-3.93,1.97-19.16-4.02c-0.09-2.28-2.58-4.05-5.74-4.05-3.22,0-5.75,1.84-5.75,4.18s2.53,4.17,5.75,4.17a6.514,6.514,0,0,0,4.79-1.83l16.35,3.43-17.12,8.57a9.38,9.38,0,0,1-8.05,0l-24.81-12.23a0.62,0.62,0,0,1,.01-1.23l21.75-10.87a16.491,16.491,0,0,1,14.17-.1l21.74,10.73a0.822,0.822,0,0,1,.55.63A0.83,0.83,0,0,1,1223.83,4005.48Zm-25.7-1.92c0,0.64-1.22,1.56-3.13,1.56s-3.13-.92-3.13-1.56,1.22-1.57,3.13-1.57S1198.13,4002.92,1198.13,4003.56Z" transform="translate(-1163 -3989.31)"/>
</svg>
